<mxfile host="app.diagrams.net" modified="2023-10-20T06:58:28.523Z" agent="Mozilla/5.0 (Windows NT 10.0; Win64; x64) AppleWebKit/537.36 (KHTML, like Gecko) Chrome/118.0.0.0 Safari/537.36" etag="KksQ2L1qsePWIj6OVgSP" version="22.0.5" type="device">
  <diagram id="C5RBs43oDa-KdzZeNtuy" name="Page-1">
    <mxGraphModel dx="683" dy="368" grid="1" gridSize="10" guides="1" tooltips="1" connect="1" arrows="1" fold="1" page="1" pageScale="1" pageWidth="827" pageHeight="1169" math="0" shadow="0">
      <root>
        <mxCell id="WIyWlLk6GJQsqaUBKTNV-0" />
        <mxCell id="WIyWlLk6GJQsqaUBKTNV-1" parent="WIyWlLk6GJQsqaUBKTNV-0" />
        <mxCell id="AYLOsUuCBGkslniAR7KQ-0" value="시작" style="ellipse;whiteSpace=wrap;html=1;" vertex="1" parent="WIyWlLk6GJQsqaUBKTNV-1">
          <mxGeometry x="40" y="40" width="120" height="80" as="geometry" />
        </mxCell>
        <mxCell id="AYLOsUuCBGkslniAR7KQ-2" value="맨처음에 하는 것 : &lt;br&gt;변수 선언이랑 초기화&lt;br&gt;&lt;br&gt;int i =1;" style="rounded=0;whiteSpace=wrap;html=1;" vertex="1" parent="WIyWlLk6GJQsqaUBKTNV-1">
          <mxGeometry x="40" y="160" width="120" height="80" as="geometry" />
        </mxCell>
        <mxCell id="AYLOsUuCBGkslniAR7KQ-3" value="" style="endArrow=classic;html=1;rounded=0;exitX=0.5;exitY=1;exitDx=0;exitDy=0;" edge="1" parent="WIyWlLk6GJQsqaUBKTNV-1" source="AYLOsUuCBGkslniAR7KQ-0" target="AYLOsUuCBGkslniAR7KQ-2">
          <mxGeometry width="50" height="50" relative="1" as="geometry">
            <mxPoint x="390" y="160" as="sourcePoint" />
            <mxPoint x="440" y="110" as="targetPoint" />
          </mxGeometry>
        </mxCell>
        <mxCell id="AYLOsUuCBGkslniAR7KQ-4" value="" style="endArrow=classic;html=1;rounded=0;exitX=0.5;exitY=1;exitDx=0;exitDy=0;entryX=0.5;entryY=0;entryDx=0;entryDy=0;" edge="1" parent="WIyWlLk6GJQsqaUBKTNV-1" source="AYLOsUuCBGkslniAR7KQ-2" target="AYLOsUuCBGkslniAR7KQ-5">
          <mxGeometry width="50" height="50" relative="1" as="geometry">
            <mxPoint x="99.66" y="240" as="sourcePoint" />
            <mxPoint x="99.66" y="280" as="targetPoint" />
          </mxGeometry>
        </mxCell>
        <mxCell id="AYLOsUuCBGkslniAR7KQ-28" value="" style="edgeStyle=orthogonalEdgeStyle;rounded=0;orthogonalLoop=1;jettySize=auto;html=1;" edge="1" parent="WIyWlLk6GJQsqaUBKTNV-1" source="AYLOsUuCBGkslniAR7KQ-5" target="AYLOsUuCBGkslniAR7KQ-7">
          <mxGeometry relative="1" as="geometry" />
        </mxCell>
        <mxCell id="AYLOsUuCBGkslniAR7KQ-5" value="syso(i++);" style="rounded=0;whiteSpace=wrap;html=1;" vertex="1" parent="WIyWlLk6GJQsqaUBKTNV-1">
          <mxGeometry x="60" y="260" width="80" height="40" as="geometry" />
        </mxCell>
        <mxCell id="AYLOsUuCBGkslniAR7KQ-7" value="판단&lt;br&gt;i &amp;lt;= 100" style="rhombus;whiteSpace=wrap;html=1;" vertex="1" parent="WIyWlLk6GJQsqaUBKTNV-1">
          <mxGeometry x="60" y="330" width="80" height="80" as="geometry" />
        </mxCell>
        <mxCell id="AYLOsUuCBGkslniAR7KQ-10" value="no" style="endArrow=classic;html=1;rounded=0;exitX=0.5;exitY=1;exitDx=0;exitDy=0;entryX=0.5;entryY=0;entryDx=0;entryDy=0;" edge="1" parent="WIyWlLk6GJQsqaUBKTNV-1" target="AYLOsUuCBGkslniAR7KQ-11">
          <mxGeometry width="50" height="50" relative="1" as="geometry">
            <mxPoint x="99.66" y="410" as="sourcePoint" />
            <mxPoint x="99.66" y="440" as="targetPoint" />
          </mxGeometry>
        </mxCell>
        <mxCell id="AYLOsUuCBGkslniAR7KQ-11" value="(100보다 커지면)&lt;br&gt;종료" style="ellipse;whiteSpace=wrap;html=1;" vertex="1" parent="WIyWlLk6GJQsqaUBKTNV-1">
          <mxGeometry x="40.000000000000085" y="449.9999999999999" width="120" height="80" as="geometry" />
        </mxCell>
        <mxCell id="AYLOsUuCBGkslniAR7KQ-13" value="yes" style="curved=1;endArrow=classic;html=1;rounded=0;exitX=1;exitY=0.5;exitDx=0;exitDy=0;" edge="1" parent="WIyWlLk6GJQsqaUBKTNV-1" source="AYLOsUuCBGkslniAR7KQ-7">
          <mxGeometry x="-0.8349" y="-7" width="50" height="50" relative="1" as="geometry">
            <mxPoint x="150" y="370" as="sourcePoint" />
            <mxPoint x="100" y="140" as="targetPoint" />
            <Array as="points">
              <mxPoint x="190" y="340" />
              <mxPoint x="180" y="110" />
            </Array>
            <mxPoint as="offset" />
          </mxGeometry>
        </mxCell>
        <mxCell id="AYLOsUuCBGkslniAR7KQ-15" value="start" style="ellipse;whiteSpace=wrap;html=1;" vertex="1" parent="WIyWlLk6GJQsqaUBKTNV-1">
          <mxGeometry x="240" y="40" width="120" height="80" as="geometry" />
        </mxCell>
        <mxCell id="AYLOsUuCBGkslniAR7KQ-17" value="int i = 1;" style="rounded=0;whiteSpace=wrap;html=1;" vertex="1" parent="WIyWlLk6GJQsqaUBKTNV-1">
          <mxGeometry x="255" y="150" width="90" height="45" as="geometry" />
        </mxCell>
        <mxCell id="AYLOsUuCBGkslniAR7KQ-19" value="판단&lt;br&gt;홀수이면 yes&lt;br&gt;i % 2 == 1&lt;br&gt;i++" style="rhombus;whiteSpace=wrap;html=1;" vertex="1" parent="WIyWlLk6GJQsqaUBKTNV-1">
          <mxGeometry x="250" y="220" width="100" height="90" as="geometry" />
        </mxCell>
        <mxCell id="AYLOsUuCBGkslniAR7KQ-20" value="" style="endArrow=classic;html=1;rounded=0;exitX=0.5;exitY=1;exitDx=0;exitDy=0;" edge="1" parent="WIyWlLk6GJQsqaUBKTNV-1" source="AYLOsUuCBGkslniAR7KQ-17" target="AYLOsUuCBGkslniAR7KQ-19">
          <mxGeometry width="50" height="50" relative="1" as="geometry">
            <mxPoint x="390" y="310" as="sourcePoint" />
            <mxPoint x="440" y="260" as="targetPoint" />
          </mxGeometry>
        </mxCell>
        <mxCell id="AYLOsUuCBGkslniAR7KQ-25" value="syso(i)" style="rounded=0;whiteSpace=wrap;html=1;" vertex="1" parent="WIyWlLk6GJQsqaUBKTNV-1">
          <mxGeometry x="260" y="350" width="80" height="40" as="geometry" />
        </mxCell>
        <mxCell id="AYLOsUuCBGkslniAR7KQ-26" value="종료" style="ellipse;whiteSpace=wrap;html=1;" vertex="1" parent="WIyWlLk6GJQsqaUBKTNV-1">
          <mxGeometry x="240" y="740" width="120" height="80" as="geometry" />
        </mxCell>
        <mxCell id="AYLOsUuCBGkslniAR7KQ-27" value="" style="endArrow=classic;html=1;rounded=0;entryX=0.5;entryY=0;entryDx=0;entryDy=0;exitX=0.5;exitY=1;exitDx=0;exitDy=0;" edge="1" parent="WIyWlLk6GJQsqaUBKTNV-1" source="AYLOsUuCBGkslniAR7KQ-5" target="AYLOsUuCBGkslniAR7KQ-7">
          <mxGeometry width="50" height="50" relative="1" as="geometry">
            <mxPoint x="130" y="320" as="sourcePoint" />
            <mxPoint x="99.66" y="320" as="targetPoint" />
          </mxGeometry>
        </mxCell>
        <mxCell id="AYLOsUuCBGkslniAR7KQ-29" value="yes" style="endArrow=classic;html=1;rounded=0;exitX=0.5;exitY=1;exitDx=0;exitDy=0;entryX=0.5;entryY=0;entryDx=0;entryDy=0;" edge="1" parent="WIyWlLk6GJQsqaUBKTNV-1" source="AYLOsUuCBGkslniAR7KQ-19" target="AYLOsUuCBGkslniAR7KQ-25">
          <mxGeometry width="50" height="50" relative="1" as="geometry">
            <mxPoint x="320" y="310" as="sourcePoint" />
            <mxPoint x="320" y="335" as="targetPoint" />
          </mxGeometry>
        </mxCell>
        <mxCell id="AYLOsUuCBGkslniAR7KQ-32" value="판단&lt;br&gt;i &amp;lt;= 100" style="rhombus;whiteSpace=wrap;html=1;" vertex="1" parent="WIyWlLk6GJQsqaUBKTNV-1">
          <mxGeometry x="250" y="600" width="100" height="90" as="geometry" />
        </mxCell>
        <mxCell id="AYLOsUuCBGkslniAR7KQ-33" value="no" style="endArrow=classic;html=1;rounded=0;exitX=0.5;exitY=1;exitDx=0;exitDy=0;entryX=0.5;entryY=0;entryDx=0;entryDy=0;" edge="1" parent="WIyWlLk6GJQsqaUBKTNV-1" source="AYLOsUuCBGkslniAR7KQ-32" target="AYLOsUuCBGkslniAR7KQ-26">
          <mxGeometry width="50" height="50" relative="1" as="geometry">
            <mxPoint x="390" y="570" as="sourcePoint" />
            <mxPoint x="440" y="520" as="targetPoint" />
          </mxGeometry>
        </mxCell>
        <mxCell id="AYLOsUuCBGkslniAR7KQ-37" value="" style="endArrow=classic;html=1;rounded=0;exitX=0.5;exitY=1;exitDx=0;exitDy=0;entryX=0.5;entryY=0;entryDx=0;entryDy=0;" edge="1" parent="WIyWlLk6GJQsqaUBKTNV-1" source="AYLOsUuCBGkslniAR7KQ-15" target="AYLOsUuCBGkslniAR7KQ-17">
          <mxGeometry width="50" height="50" relative="1" as="geometry">
            <mxPoint x="430" y="150" as="sourcePoint" />
            <mxPoint x="480" y="100" as="targetPoint" />
          </mxGeometry>
        </mxCell>
        <mxCell id="AYLOsUuCBGkslniAR7KQ-39" value="yes" style="curved=1;endArrow=classic;html=1;rounded=0;exitX=1;exitY=0.5;exitDx=0;exitDy=0;" edge="1" parent="WIyWlLk6GJQsqaUBKTNV-1" source="AYLOsUuCBGkslniAR7KQ-32">
          <mxGeometry x="-0.9165" y="2" width="50" height="50" relative="1" as="geometry">
            <mxPoint x="390" y="460" as="sourcePoint" />
            <mxPoint x="300" y="200" as="targetPoint" />
            <Array as="points">
              <mxPoint x="390" y="450" />
              <mxPoint x="390" y="190" />
            </Array>
            <mxPoint as="offset" />
          </mxGeometry>
        </mxCell>
        <mxCell id="AYLOsUuCBGkslniAR7KQ-40" value="i++" style="rounded=0;whiteSpace=wrap;html=1;" vertex="1" parent="WIyWlLk6GJQsqaUBKTNV-1">
          <mxGeometry x="260" y="460" width="80" height="40" as="geometry" />
        </mxCell>
        <mxCell id="AYLOsUuCBGkslniAR7KQ-41" value="start" style="ellipse;whiteSpace=wrap;html=1;" vertex="1" parent="WIyWlLk6GJQsqaUBKTNV-1">
          <mxGeometry x="420.5" y="10" width="119" height="80" as="geometry" />
        </mxCell>
        <mxCell id="AYLOsUuCBGkslniAR7KQ-42" value="&amp;lt;변수 선언과 초기화&amp;gt;&lt;br&gt;&lt;br&gt;int a = 입력받기&lt;br&gt;int b = 입력받기&lt;br&gt;int c = 입력받기&lt;br&gt;int mas = a ;" style="rounded=0;whiteSpace=wrap;html=1;" vertex="1" parent="WIyWlLk6GJQsqaUBKTNV-1">
          <mxGeometry x="410" y="120" width="140" height="100" as="geometry" />
        </mxCell>
        <mxCell id="AYLOsUuCBGkslniAR7KQ-43" value="" style="endArrow=classic;html=1;rounded=0;exitX=0.5;exitY=1;exitDx=0;exitDy=0;entryX=0.5;entryY=0;entryDx=0;entryDy=0;" edge="1" parent="WIyWlLk6GJQsqaUBKTNV-1" source="AYLOsUuCBGkslniAR7KQ-41" target="AYLOsUuCBGkslniAR7KQ-42">
          <mxGeometry width="50" height="50" relative="1" as="geometry">
            <mxPoint x="576.5" y="120" as="sourcePoint" />
            <mxPoint x="626.5" y="70" as="targetPoint" />
          </mxGeometry>
        </mxCell>
        <mxCell id="AYLOsUuCBGkslniAR7KQ-44" value="b &amp;gt; max" style="rhombus;whiteSpace=wrap;html=1;" vertex="1" parent="WIyWlLk6GJQsqaUBKTNV-1">
          <mxGeometry x="426.66" y="245" width="106.69" height="70" as="geometry" />
        </mxCell>
        <mxCell id="AYLOsUuCBGkslniAR7KQ-45" value="" style="endArrow=classic;html=1;rounded=0;exitX=0.5;exitY=1;exitDx=0;exitDy=0;" edge="1" parent="WIyWlLk6GJQsqaUBKTNV-1" source="AYLOsUuCBGkslniAR7KQ-42" target="AYLOsUuCBGkslniAR7KQ-44">
          <mxGeometry width="50" height="50" relative="1" as="geometry">
            <mxPoint x="479.72" y="220" as="sourcePoint" />
            <mxPoint x="479.72" y="250" as="targetPoint" />
          </mxGeometry>
        </mxCell>
        <mxCell id="AYLOsUuCBGkslniAR7KQ-46" value="max = b;" style="rounded=0;whiteSpace=wrap;html=1;" vertex="1" parent="WIyWlLk6GJQsqaUBKTNV-1">
          <mxGeometry x="450" y="350" width="60" height="30" as="geometry" />
        </mxCell>
        <mxCell id="AYLOsUuCBGkslniAR7KQ-48" value="yes" style="endArrow=classic;html=1;rounded=0;exitX=0.5;exitY=1;exitDx=0;exitDy=0;entryX=0.5;entryY=0;entryDx=0;entryDy=0;" edge="1" parent="WIyWlLk6GJQsqaUBKTNV-1" source="AYLOsUuCBGkslniAR7KQ-44" target="AYLOsUuCBGkslniAR7KQ-46">
          <mxGeometry x="-0.1426" width="50" height="50" relative="1" as="geometry">
            <mxPoint x="530" y="370" as="sourcePoint" />
            <mxPoint x="580" y="320" as="targetPoint" />
            <mxPoint as="offset" />
          </mxGeometry>
        </mxCell>
        <mxCell id="AYLOsUuCBGkslniAR7KQ-50" value="c &amp;gt; max" style="rhombus;whiteSpace=wrap;html=1;" vertex="1" parent="WIyWlLk6GJQsqaUBKTNV-1">
          <mxGeometry x="426.66" y="400" width="106.69" height="70" as="geometry" />
        </mxCell>
        <mxCell id="AYLOsUuCBGkslniAR7KQ-51" value="max = c;" style="rounded=0;whiteSpace=wrap;html=1;" vertex="1" parent="WIyWlLk6GJQsqaUBKTNV-1">
          <mxGeometry x="450" y="505" width="60" height="30" as="geometry" />
        </mxCell>
        <mxCell id="AYLOsUuCBGkslniAR7KQ-52" value="yes" style="endArrow=classic;html=1;rounded=0;exitX=0.5;exitY=1;exitDx=0;exitDy=0;entryX=0.5;entryY=0;entryDx=0;entryDy=0;" edge="1" parent="WIyWlLk6GJQsqaUBKTNV-1" target="AYLOsUuCBGkslniAR7KQ-51" source="AYLOsUuCBGkslniAR7KQ-50">
          <mxGeometry x="-0.1426" width="50" height="50" relative="1" as="geometry">
            <mxPoint x="480" y="470" as="sourcePoint" />
            <mxPoint x="580" y="475" as="targetPoint" />
            <mxPoint as="offset" />
          </mxGeometry>
        </mxCell>
        <mxCell id="AYLOsUuCBGkslniAR7KQ-53" value="syso(max);" style="rounded=0;whiteSpace=wrap;html=1;" vertex="1" parent="WIyWlLk6GJQsqaUBKTNV-1">
          <mxGeometry x="440" y="570" width="80" height="40" as="geometry" />
        </mxCell>
        <mxCell id="AYLOsUuCBGkslniAR7KQ-55" value="yes" style="endArrow=classic;html=1;rounded=0;exitX=0.5;exitY=1;exitDx=0;exitDy=0;entryX=0.5;entryY=0;entryDx=0;entryDy=0;" edge="1" parent="WIyWlLk6GJQsqaUBKTNV-1">
          <mxGeometry x="-0.1426" width="50" height="50" relative="1" as="geometry">
            <mxPoint x="479.72" y="535" as="sourcePoint" />
            <mxPoint x="479.72" y="570" as="targetPoint" />
            <mxPoint as="offset" />
          </mxGeometry>
        </mxCell>
        <mxCell id="AYLOsUuCBGkslniAR7KQ-56" value="" style="endArrow=classic;html=1;rounded=0;exitX=0.5;exitY=1;exitDx=0;exitDy=0;" edge="1" parent="WIyWlLk6GJQsqaUBKTNV-1">
          <mxGeometry width="50" height="50" relative="1" as="geometry">
            <mxPoint x="479.71" y="380" as="sourcePoint" />
            <mxPoint x="480" y="400" as="targetPoint" />
          </mxGeometry>
        </mxCell>
        <mxCell id="AYLOsUuCBGkslniAR7KQ-57" value="no" style="endArrow=classic;html=1;rounded=0;exitX=0.969;exitY=0.5;exitDx=0;exitDy=0;exitPerimeter=0;entryX=1;entryY=0.5;entryDx=0;entryDy=0;" edge="1" parent="WIyWlLk6GJQsqaUBKTNV-1" source="AYLOsUuCBGkslniAR7KQ-44" target="AYLOsUuCBGkslniAR7KQ-50">
          <mxGeometry x="-0.8114" width="50" height="50" relative="1" as="geometry">
            <mxPoint x="533.35" y="280" as="sourcePoint" />
            <mxPoint x="610" y="480" as="targetPoint" />
            <Array as="points">
              <mxPoint x="560" y="280" />
              <mxPoint x="560" y="435" />
            </Array>
            <mxPoint as="offset" />
          </mxGeometry>
        </mxCell>
        <mxCell id="AYLOsUuCBGkslniAR7KQ-58" value="no" style="endArrow=classic;html=1;rounded=0;exitX=0;exitY=0.5;exitDx=0;exitDy=0;entryX=0;entryY=0.5;entryDx=0;entryDy=0;" edge="1" parent="WIyWlLk6GJQsqaUBKTNV-1" source="AYLOsUuCBGkslniAR7KQ-50" target="AYLOsUuCBGkslniAR7KQ-53">
          <mxGeometry x="-0.6241" width="50" height="50" relative="1" as="geometry">
            <mxPoint x="539.46" y="445" as="sourcePoint" />
            <mxPoint x="542.46" y="600" as="targetPoint" />
            <Array as="points">
              <mxPoint x="400" y="435" />
              <mxPoint x="400" y="590" />
            </Array>
            <mxPoint as="offset" />
          </mxGeometry>
        </mxCell>
        <mxCell id="AYLOsUuCBGkslniAR7KQ-60" value="종료" style="ellipse;whiteSpace=wrap;html=1;" vertex="1" parent="WIyWlLk6GJQsqaUBKTNV-1">
          <mxGeometry x="420.5" y="690" width="120" height="80" as="geometry" />
        </mxCell>
        <mxCell id="AYLOsUuCBGkslniAR7KQ-61" value="" style="endArrow=classic;html=1;rounded=0;exitX=0.5;exitY=1;exitDx=0;exitDy=0;" edge="1" parent="WIyWlLk6GJQsqaUBKTNV-1" source="AYLOsUuCBGkslniAR7KQ-53" target="AYLOsUuCBGkslniAR7KQ-60">
          <mxGeometry width="50" height="50" relative="1" as="geometry">
            <mxPoint x="480" y="690" as="sourcePoint" />
            <mxPoint x="530" y="640" as="targetPoint" />
          </mxGeometry>
        </mxCell>
      </root>
    </mxGraphModel>
  </diagram>
</mxfile>
